<svg xmlns="http://www.w3.org/2000/svg" xmlns:xlink="http://www.w3.org/1999/xlink" width="1000" zoomAndPan="magnify" viewBox="0 0 750 208.499994" height="278" preserveAspectRatio="xMidYMid meet" version="1.0"><defs><g/></defs><g fill="#ff3131" fill-opacity="1"><g transform="translate(4.447383, 162.168954)"><g><path d="M 132.140625 -93.765625 C 142.554688 -93.765625 150.367188 -90.78125 155.578125 -84.8125 C 160.785156 -78.851562 163.390625 -70.378906 163.390625 -59.390625 L 163.390625 0 L 128.84375 0 L 128.84375 -55.21875 C 128.84375 -59.15625 127.882812 -62.304688 125.96875 -64.671875 C 124.0625 -67.046875 121.375 -68.234375 117.90625 -68.234375 C 113.851562 -68.234375 110.550781 -66.84375 108 -64.0625 C 105.457031 -61.289062 104.1875 -57.878906 104.1875 -53.828125 L 104.1875 0 L 69.625 0 L 69.625 -55.21875 C 69.625 -59.15625 68.671875 -62.304688 66.765625 -64.671875 C 64.859375 -67.046875 62.164062 -68.234375 58.6875 -68.234375 C 54.632812 -68.234375 51.332031 -66.84375 48.78125 -64.0625 C 46.238281 -61.289062 44.96875 -57.878906 44.96875 -53.828125 L 44.96875 0 L 10.421875 0 L 10.421875 -91.6875 L 38.71875 -91.6875 L 40.984375 -77.96875 C 44.453125 -82.820312 49.050781 -86.664062 54.78125 -89.5 C 60.507812 -92.34375 66.554688 -93.765625 72.921875 -93.765625 C 86.703125 -93.765625 95.96875 -88.5 100.71875 -77.96875 C 104.300781 -82.820312 108.898438 -86.664062 114.515625 -89.5 C 120.128906 -92.34375 126.003906 -93.765625 132.140625 -93.765625 Z M 132.140625 -93.765625 "/></g></g></g><g fill="#ff3131" fill-opacity="1"><g transform="translate(168.191712, 162.168954)"><g><path d="M 57.828125 -93.765625 C 74.609375 -93.765625 87.425781 -89.828125 96.28125 -81.953125 C 105.132812 -74.085938 109.5625 -62.050781 109.5625 -45.84375 L 109.5625 -39.9375 L 40.8125 -39.9375 C 40.8125 -33.34375 42.285156 -28.363281 45.234375 -25 C 48.179688 -21.644531 52.84375 -19.96875 59.21875 -19.96875 C 65 -19.96875 69.25 -21.179688 71.96875 -23.609375 C 74.6875 -26.046875 76.046875 -29.289062 76.046875 -33.34375 L 109.5625 -33.34375 C 109.5625 -22.226562 105.335938 -13.546875 96.890625 -7.296875 C 88.441406 -1.046875 76.113281 2.078125 59.90625 2.078125 C 42.882812 2.078125 29.6875 -1.882812 20.3125 -9.8125 C 10.9375 -17.738281 6.25 -29.75 6.25 -45.84375 C 6.25 -61.582031 10.820312 -73.503906 19.96875 -81.609375 C 29.113281 -89.710938 41.734375 -93.765625 57.828125 -93.765625 Z M 59.21875 -71.71875 C 48.332031 -71.71875 42.253906 -66.566406 40.984375 -56.265625 L 74.671875 -56.265625 C 74.671875 -61.003906 73.304688 -64.765625 70.578125 -67.546875 C 67.859375 -70.328125 64.070312 -71.71875 59.21875 -71.71875 Z M 59.21875 -71.71875 "/></g></g></g><g fill="#ff3131" fill-opacity="1"><g transform="translate(274.113198, 162.168954)"><g><path d="M 77.09375 0 L 74.140625 -13.015625 C 67.429688 -2.953125 57.707031 2.078125 44.96875 2.078125 C 32.582031 2.078125 23.03125 -1.96875 16.3125 -10.0625 C 9.601562 -18.164062 6.25 -30.148438 6.25 -46.015625 C 6.25 -61.753906 9.601562 -73.644531 16.3125 -81.6875 C 23.03125 -89.738281 32.582031 -93.765625 44.96875 -93.765625 C 55.507812 -93.765625 64.078125 -90.234375 70.671875 -83.171875 L 70.671875 -125.890625 L 105.21875 -125.890625 L 105.21875 0 Z M 55.734375 -68.234375 C 45.785156 -68.234375 40.8125 -62.273438 40.8125 -50.359375 L 40.8125 -41.15625 C 40.8125 -29.34375 45.785156 -23.4375 55.734375 -23.4375 C 60.828125 -23.4375 64.644531 -25.226562 67.1875 -28.8125 C 69.738281 -32.40625 71.015625 -37.097656 71.015625 -42.890625 L 71.015625 -48.625 C 71.015625 -54.40625 69.738281 -59.117188 67.1875 -62.765625 C 64.644531 -66.410156 60.828125 -68.234375 55.734375 -68.234375 Z M 55.734375 -68.234375 "/></g></g></g><g fill="#ff3131" fill-opacity="1"><g transform="translate(380.034697, 162.168954)"><g><path d="M 57.828125 -93.765625 C 74.609375 -93.765625 87.425781 -89.828125 96.28125 -81.953125 C 105.132812 -74.085938 109.5625 -62.050781 109.5625 -45.84375 L 109.5625 -39.9375 L 40.8125 -39.9375 C 40.8125 -33.34375 42.285156 -28.363281 45.234375 -25 C 48.179688 -21.644531 52.84375 -19.96875 59.21875 -19.96875 C 65 -19.96875 69.25 -21.179688 71.96875 -23.609375 C 74.6875 -26.046875 76.046875 -29.289062 76.046875 -33.34375 L 109.5625 -33.34375 C 109.5625 -22.226562 105.335938 -13.546875 96.890625 -7.296875 C 88.441406 -1.046875 76.113281 2.078125 59.90625 2.078125 C 42.882812 2.078125 29.6875 -1.882812 20.3125 -9.8125 C 10.9375 -17.738281 6.25 -29.75 6.25 -45.84375 C 6.25 -61.582031 10.820312 -73.503906 19.96875 -81.609375 C 29.113281 -89.710938 41.734375 -93.765625 57.828125 -93.765625 Z M 59.21875 -71.71875 C 48.332031 -71.71875 42.253906 -66.566406 40.984375 -56.265625 L 74.671875 -56.265625 C 74.671875 -61.003906 73.304688 -64.765625 70.578125 -67.546875 C 67.859375 -70.328125 64.070312 -71.71875 59.21875 -71.71875 Z M 59.21875 -71.71875 "/></g></g></g><g fill="#ff3131" fill-opacity="1"><g transform="translate(485.956195, 162.168954)"><g><path d="M 11.640625 0 L 11.640625 -125.890625 L 46.1875 -125.890625 L 46.1875 0 Z M 11.640625 0 "/></g></g></g><g fill="#ff3131" fill-opacity="1"><g transform="translate(533.881226, 162.168954)"><g><path d="M 11.640625 0 L 11.640625 -125.890625 L 46.1875 -125.890625 L 46.1875 0 Z M 11.640625 0 "/></g></g></g><g fill="#ff3131" fill-opacity="1"><g transform="translate(581.806258, 162.168954)"><g><path d="M 11.640625 -102.453125 L 11.640625 -125.890625 L 46.1875 -125.890625 L 46.1875 -102.453125 Z M 11.640625 0 L 11.640625 -91.6875 L 46.1875 -91.6875 L 46.1875 0 Z M 11.640625 0 "/></g></g></g><g fill="#ff3131" fill-opacity="1"><g transform="translate(629.731289, 162.168954)"><g><path d="M 73.625 -93.765625 C 84.269531 -93.765625 92.253906 -90.8125 97.578125 -84.90625 C 102.910156 -79 105.578125 -70.492188 105.578125 -59.390625 L 105.578125 0 L 71.015625 0 L 71.015625 -55.21875 C 71.015625 -59.15625 70 -62.304688 67.96875 -64.671875 C 65.945312 -67.046875 63.085938 -68.234375 59.390625 -68.234375 C 55.097656 -68.234375 51.617188 -66.84375 48.953125 -64.0625 C 46.296875 -61.289062 44.96875 -57.878906 44.96875 -53.828125 L 44.96875 0 L 10.421875 0 L 10.421875 -91.6875 L 38.71875 -91.6875 L 40.984375 -77.796875 C 44.566406 -82.648438 49.28125 -86.523438 55.125 -89.421875 C 60.976562 -92.316406 67.144531 -93.765625 73.625 -93.765625 Z M 73.625 -93.765625 "/></g></g></g><g fill="#ff3131" fill-opacity="1"><g transform="translate(598.759955, 181.704821)"><g><path d="M 13.722656 -10.921875 L 14.238281 -13.703125 L 1.765625 -13.703125 L 1.25 -10.921875 L 5.71875 -10.921875 L 3.792969 0 L 7.367188 0 L 9.292969 -10.921875 Z M 13.722656 -10.921875 "/></g></g></g><g fill="#ff3131" fill-opacity="1"><g transform="translate(610.690062, 181.704821)"><g><path d="M 13.5625 -10.605469 C 13.5625 -12.550781 12.132812 -13.402344 10.40625 -13.601562 C 9.691406 -13.683594 9.132812 -13.703125 8.28125 -13.703125 L 2.839844 -13.703125 L 0.417969 0 L 3.992188 0 L 4.90625 -5.203125 L 5.71875 -5.203125 C 6.117188 -5.203125 6.433594 -5.203125 6.832031 -5.183594 C 7.664062 -5.125 8.101562 -4.347656 8.101562 -3.039062 C 8.101562 -1.46875 8.140625 -0.734375 8.242188 0 L 12.132812 0 C 11.835938 -0.65625 11.675781 -1.507812 11.675781 -2.640625 C 11.675781 -4.804688 11.277344 -5.976562 10.046875 -6.511719 C 12.351562 -7.109375 13.5625 -8.519531 13.5625 -10.605469 Z M 5.363281 -7.785156 L 5.917969 -10.921875 L 7.308594 -10.921875 C 7.683594 -10.921875 8.003906 -10.921875 8.261719 -10.902344 C 9.054688 -10.84375 9.671875 -10.5625 9.671875 -9.671875 C 9.671875 -8.28125 8.675781 -7.882812 7.625 -7.804688 C 7.367188 -7.785156 7.050781 -7.785156 6.671875 -7.785156 Z M 5.363281 -7.785156 "/></g></g></g><g fill="#ff3131" fill-opacity="1"><g transform="translate(623.314943, 181.704821)"><g><path d="M 8.996094 -3.554688 L 9.511719 0 L 13.402344 0 L 11 -13.703125 L 6.375 -13.703125 L -0.855469 0 L 2.9375 0 L 4.6875 -3.554688 Z M 8.597656 -6.335938 L 6.035156 -6.335938 L 8.023438 -10.386719 Z M 8.597656 -6.335938 "/></g></g></g><g fill="#ff3131" fill-opacity="1"><g transform="translate(636.733859, 181.704821)"><g><path d="M 9.152344 0 L 16.382812 -13.703125 L 12.589844 -13.703125 L 7.367188 -2.761719 L 6.015625 -13.703125 L 2.125 -13.703125 L 4.527344 0 Z M 9.152344 0 "/></g></g></g><g fill="#ff3131" fill-opacity="1"><g transform="translate(650.847559, 181.704821)"><g><path d="M 5.917969 -10.921875 L 12.648438 -10.921875 L 13.144531 -13.703125 L 2.839844 -13.703125 L 0.417969 0 L 10.921875 0 L 11.417969 -2.78125 L 4.488281 -2.78125 L 4.964844 -5.480469 L 11.300781 -5.480469 L 11.796875 -8.261719 L 5.460938 -8.261719 Z M 5.917969 -10.921875 "/></g></g></g><g fill="#ff3131" fill-opacity="1"><g transform="translate(662.698261, 181.704821)"><g><path d="M 11.457031 -3.019531 L 4.527344 -3.019531 L 6.414062 -13.703125 L 2.839844 -13.703125 L 0.417969 0 L 10.921875 0 Z M 11.457031 -3.019531 "/></g></g></g><g fill="#ff3131" fill-opacity="1"><g transform="translate(674.317043, 181.704821)"><g/></g></g><g fill="#ff3131" fill-opacity="1"><g transform="translate(676.242342, 181.704821)"><g/></g></g><g fill="#ff3131" fill-opacity="1"><g transform="translate(678.167641, 181.704821)"><g/></g></g><g fill="#ff3131" fill-opacity="1"><g transform="translate(680.103942, 181.704821)"><g><path d="M 10.582031 -7.40625 C 12.3125 -7.941406 13.164062 -9.113281 13.164062 -10.644531 C 13.164062 -12.152344 12.152344 -13.382812 10.207031 -13.621094 C 9.511719 -13.703125 9.195312 -13.703125 8.460938 -13.703125 L 2.839844 -13.703125 L 0.417969 0 L 5.878906 0 C 6.75 0 7.207031 0 7.921875 -0.078125 C 10.007812 -0.316406 12.648438 -1.648438 12.648438 -4.410156 C 12.648438 -5.859375 11.992188 -6.929688 10.582031 -7.40625 Z M 5.917969 -10.921875 L 7.527344 -10.921875 C 7.84375 -10.921875 8.160156 -10.902344 8.417969 -10.863281 C 8.976562 -10.78125 9.3125 -10.464844 9.3125 -9.867188 C 9.3125 -8.894531 8.757812 -8.480469 7.960938 -8.359375 C 7.683594 -8.320312 7.386719 -8.300781 7.070312 -8.300781 L 5.460938 -8.300781 Z M 7.308594 -2.800781 C 7.03125 -2.78125 6.730469 -2.78125 6.414062 -2.78125 L 4.488281 -2.78125 L 5.003906 -5.71875 L 6.832031 -5.71875 C 7.148438 -5.71875 7.464844 -5.71875 7.722656 -5.699219 C 8.359375 -5.640625 8.875 -5.242188 8.875 -4.488281 C 8.875 -3.457031 8.023438 -2.839844 7.308594 -2.800781 Z M 7.308594 -2.800781 "/></g></g></g><g fill="#ff3131" fill-opacity="1"><g transform="translate(692.828082, 181.704821)"><g><path d="M 11.457031 -3.019531 L 4.527344 -3.019531 L 6.414062 -13.703125 L 2.839844 -13.703125 L 0.417969 0 L 10.921875 0 Z M 11.457031 -3.019531 "/></g></g></g><g fill="#ff3131" fill-opacity="1"><g transform="translate(704.440575, 181.704821)"><g><path d="M 9.273438 -13.980469 C 4.824219 -13.980469 1.289062 -10.824219 1.289062 -5.660156 C 1.289062 -2.265625 3.652344 0.277344 7.84375 0.277344 C 12.292969 0.277344 15.828125 -2.878906 15.828125 -8.042969 C 15.828125 -11.4375 13.464844 -13.980469 9.273438 -13.980469 Z M 7.960938 -2.34375 C 6.054688 -2.34375 5.0625 -3.753906 5.0625 -5.757812 C 5.0625 -8.320312 6.394531 -11.359375 9.152344 -11.359375 C 11.0625 -11.359375 12.054688 -9.949219 12.054688 -7.941406 C 12.054688 -5.382812 10.722656 -2.34375 7.960938 -2.34375 Z M 7.960938 -2.34375 "/></g></g></g><g fill="#ff3131" fill-opacity="1"><g transform="translate(719.864425, 181.704821)"><g><path d="M 9.652344 -13.980469 C 5.382812 -13.980469 1.230469 -10.960938 1.230469 -5.242188 C 1.230469 -1.648438 3.257812 0.277344 6.394531 0.277344 C 7.84375 0.277344 8.816406 0.0585938 9.691406 -0.597656 L 10.5625 -2.125 L 10.523438 0 L 13.304688 0 L 14.59375 -7.308594 L 8.558594 -7.308594 L 8.0625 -4.527344 L 10.722656 -4.527344 C 9.96875 -3.019531 8.9375 -2.34375 7.546875 -2.34375 C 6.15625 -2.34375 5.023438 -3.238281 5.023438 -5.660156 C 5.023438 -9.453125 7.050781 -11.359375 9.152344 -11.359375 C 10.605469 -11.359375 11.378906 -10.664062 11.417969 -9.195312 L 11.417969 -8.996094 L 14.992188 -8.996094 L 15.011719 -9.195312 C 15.210938 -11.894531 13.5625 -13.980469 9.652344 -13.980469 Z M 9.652344 -13.980469 "/></g></g></g></svg>