<svg xmlns="http://www.w3.org/2000/svg" xmlns:xlink="http://www.w3.org/1999/xlink" width="1000" zoomAndPan="magnify" viewBox="0 0 750 208.499994" height="278" preserveAspectRatio="xMidYMid meet" version="1.0"><defs><g/></defs><g fill="#ff3131" fill-opacity="1"><g transform="translate(4.447383, 161.804105)"><g><path d="M 132.140625 -93.765625 C 142.554688 -93.765625 150.367188 -90.78125 155.578125 -84.8125 C 160.785156 -78.851562 163.390625 -70.378906 163.390625 -59.390625 L 163.390625 0 L 128.84375 0 L 128.84375 -55.21875 C 128.84375 -59.15625 127.882812 -62.304688 125.96875 -64.671875 C 124.0625 -67.046875 121.375 -68.234375 117.90625 -68.234375 C 113.851562 -68.234375 110.550781 -66.84375 108 -64.0625 C 105.457031 -61.289062 104.1875 -57.878906 104.1875 -53.828125 L 104.1875 0 L 69.625 0 L 69.625 -55.21875 C 69.625 -59.15625 68.671875 -62.304688 66.765625 -64.671875 C 64.859375 -67.046875 62.164062 -68.234375 58.6875 -68.234375 C 54.632812 -68.234375 51.332031 -66.84375 48.78125 -64.0625 C 46.238281 -61.289062 44.96875 -57.878906 44.96875 -53.828125 L 44.96875 0 L 10.421875 0 L 10.421875 -91.6875 L 38.71875 -91.6875 L 40.984375 -77.96875 C 44.453125 -82.820312 49.050781 -86.664062 54.78125 -89.5 C 60.507812 -92.34375 66.554688 -93.765625 72.921875 -93.765625 C 86.703125 -93.765625 95.96875 -88.5 100.71875 -77.96875 C 104.300781 -82.820312 108.898438 -86.664062 114.515625 -89.5 C 120.128906 -92.34375 126.003906 -93.765625 132.140625 -93.765625 Z M 132.140625 -93.765625 "/></g></g></g><g fill="#ff3131" fill-opacity="1"><g transform="translate(168.191712, 161.804105)"><g><path d="M 57.828125 -93.765625 C 74.609375 -93.765625 87.425781 -89.828125 96.28125 -81.953125 C 105.132812 -74.085938 109.5625 -62.050781 109.5625 -45.84375 L 109.5625 -39.9375 L 40.8125 -39.9375 C 40.8125 -33.34375 42.285156 -28.363281 45.234375 -25 C 48.179688 -21.644531 52.84375 -19.96875 59.21875 -19.96875 C 65 -19.96875 69.25 -21.179688 71.96875 -23.609375 C 74.6875 -26.046875 76.046875 -29.289062 76.046875 -33.34375 L 109.5625 -33.34375 C 109.5625 -22.226562 105.335938 -13.546875 96.890625 -7.296875 C 88.441406 -1.046875 76.113281 2.078125 59.90625 2.078125 C 42.882812 2.078125 29.6875 -1.882812 20.3125 -9.8125 C 10.9375 -17.738281 6.25 -29.75 6.25 -45.84375 C 6.25 -61.582031 10.820312 -73.503906 19.96875 -81.609375 C 29.113281 -89.710938 41.734375 -93.765625 57.828125 -93.765625 Z M 59.21875 -71.71875 C 48.332031 -71.71875 42.253906 -66.566406 40.984375 -56.265625 L 74.671875 -56.265625 C 74.671875 -61.003906 73.304688 -64.765625 70.578125 -67.546875 C 67.859375 -70.328125 64.070312 -71.71875 59.21875 -71.71875 Z M 59.21875 -71.71875 "/></g></g></g><g fill="#ff3131" fill-opacity="1"><g transform="translate(274.113198, 161.804105)"><g><path d="M 77.09375 0 L 74.140625 -13.015625 C 67.429688 -2.953125 57.707031 2.078125 44.96875 2.078125 C 32.582031 2.078125 23.03125 -1.96875 16.3125 -10.0625 C 9.601562 -18.164062 6.25 -30.148438 6.25 -46.015625 C 6.25 -61.753906 9.601562 -73.644531 16.3125 -81.6875 C 23.03125 -89.738281 32.582031 -93.765625 44.96875 -93.765625 C 55.507812 -93.765625 64.078125 -90.234375 70.671875 -83.171875 L 70.671875 -125.890625 L 105.21875 -125.890625 L 105.21875 0 Z M 55.734375 -68.234375 C 45.785156 -68.234375 40.8125 -62.273438 40.8125 -50.359375 L 40.8125 -41.15625 C 40.8125 -29.34375 45.785156 -23.4375 55.734375 -23.4375 C 60.828125 -23.4375 64.644531 -25.226562 67.1875 -28.8125 C 69.738281 -32.40625 71.015625 -37.097656 71.015625 -42.890625 L 71.015625 -48.625 C 71.015625 -54.40625 69.738281 -59.117188 67.1875 -62.765625 C 64.644531 -66.410156 60.828125 -68.234375 55.734375 -68.234375 Z M 55.734375 -68.234375 "/></g></g></g><g fill="#ff3131" fill-opacity="1"><g transform="translate(380.034697, 161.804105)"><g><path d="M 57.828125 -93.765625 C 74.609375 -93.765625 87.425781 -89.828125 96.28125 -81.953125 C 105.132812 -74.085938 109.5625 -62.050781 109.5625 -45.84375 L 109.5625 -39.9375 L 40.8125 -39.9375 C 40.8125 -33.34375 42.285156 -28.363281 45.234375 -25 C 48.179688 -21.644531 52.84375 -19.96875 59.21875 -19.96875 C 65 -19.96875 69.25 -21.179688 71.96875 -23.609375 C 74.6875 -26.046875 76.046875 -29.289062 76.046875 -33.34375 L 109.5625 -33.34375 C 109.5625 -22.226562 105.335938 -13.546875 96.890625 -7.296875 C 88.441406 -1.046875 76.113281 2.078125 59.90625 2.078125 C 42.882812 2.078125 29.6875 -1.882812 20.3125 -9.8125 C 10.9375 -17.738281 6.25 -29.75 6.25 -45.84375 C 6.25 -61.582031 10.820312 -73.503906 19.96875 -81.609375 C 29.113281 -89.710938 41.734375 -93.765625 57.828125 -93.765625 Z M 59.21875 -71.71875 C 48.332031 -71.71875 42.253906 -66.566406 40.984375 -56.265625 L 74.671875 -56.265625 C 74.671875 -61.003906 73.304688 -64.765625 70.578125 -67.546875 C 67.859375 -70.328125 64.070312 -71.71875 59.21875 -71.71875 Z M 59.21875 -71.71875 "/></g></g></g><g fill="#ff3131" fill-opacity="1"><g transform="translate(485.956195, 161.804105)"><g><path d="M 11.640625 0 L 11.640625 -125.890625 L 46.1875 -125.890625 L 46.1875 0 Z M 11.640625 0 "/></g></g></g><g fill="#ff3131" fill-opacity="1"><g transform="translate(533.881226, 161.804105)"><g><path d="M 11.640625 0 L 11.640625 -125.890625 L 46.1875 -125.890625 L 46.1875 0 Z M 11.640625 0 "/></g></g></g><g fill="#ff3131" fill-opacity="1"><g transform="translate(581.806258, 161.804105)"><g><path d="M 11.640625 -102.453125 L 11.640625 -125.890625 L 46.1875 -125.890625 L 46.1875 -102.453125 Z M 11.640625 0 L 11.640625 -91.6875 L 46.1875 -91.6875 L 46.1875 0 Z M 11.640625 0 "/></g></g></g><g fill="#ff3131" fill-opacity="1"><g transform="translate(629.731289, 161.804105)"><g><path d="M 73.625 -93.765625 C 84.269531 -93.765625 92.253906 -90.8125 97.578125 -84.90625 C 102.910156 -79 105.578125 -70.492188 105.578125 -59.390625 L 105.578125 0 L 71.015625 0 L 71.015625 -55.21875 C 71.015625 -59.15625 70 -62.304688 67.96875 -64.671875 C 65.945312 -67.046875 63.085938 -68.234375 59.390625 -68.234375 C 55.097656 -68.234375 51.617188 -66.84375 48.953125 -64.0625 C 46.296875 -61.289062 44.96875 -57.878906 44.96875 -53.828125 L 44.96875 0 L 10.421875 0 L 10.421875 -91.6875 L 38.71875 -91.6875 L 40.984375 -77.796875 C 44.566406 -82.648438 49.28125 -86.523438 55.125 -89.421875 C 60.976562 -92.316406 67.144531 -93.765625 73.625 -93.765625 Z M 73.625 -93.765625 "/></g></g></g><g fill="#ff3131" fill-opacity="1"><g transform="translate(387.980561, 200.293375)"><g><path d="M 34.84375 -27.734375 L 36.15625 -34.792969 L 4.488281 -34.792969 L 3.175781 -27.734375 L 14.523438 -27.734375 L 9.632812 0 L 18.707031 0 L 23.601562 -27.734375 Z M 34.84375 -27.734375 "/></g></g></g><g fill="#ff3131" fill-opacity="1"><g transform="translate(418.276689, 200.293375)"><g><path d="M 34.441406 -26.929688 C 34.441406 -31.871094 30.8125 -34.039062 26.425781 -34.542969 C 24.609375 -34.746094 23.195312 -34.792969 21.027344 -34.792969 L 7.210938 -34.792969 L 1.058594 0 L 10.136719 0 L 12.457031 -13.210938 L 14.523438 -13.210938 C 15.53125 -13.210938 16.339844 -13.210938 17.347656 -13.160156 C 19.464844 -13.011719 20.574219 -11.042969 20.574219 -7.714844 C 20.574219 -3.730469 20.675781 -1.867188 20.925781 0 L 30.8125 0 C 30.054688 -1.664062 29.652344 -3.832031 29.652344 -6.707031 C 29.652344 -12.203125 28.644531 -15.179688 25.515625 -16.539062 C 31.367188 -18.054688 34.441406 -21.632812 34.441406 -26.929688 Z M 13.617188 -19.765625 L 15.027344 -27.734375 L 18.558594 -27.734375 C 19.515625 -27.734375 20.320312 -27.734375 20.976562 -27.683594 C 22.996094 -27.535156 24.558594 -26.828125 24.558594 -24.558594 C 24.558594 -21.027344 22.035156 -20.019531 19.363281 -19.816406 C 18.707031 -19.765625 17.902344 -19.765625 16.945312 -19.765625 Z M 13.617188 -19.765625 "/></g></g></g><g fill="#ff3131" fill-opacity="1"><g transform="translate(450.337173, 200.293375)"><g><path d="M 22.84375 -9.027344 L 24.15625 0 L 34.039062 0 L 27.9375 -34.792969 L 16.1875 -34.792969 L -2.167969 0 L 7.464844 0 L 11.902344 -9.027344 Z M 21.835938 -16.085938 L 15.328125 -16.085938 L 20.371094 -26.375 Z M 21.835938 -16.085938 "/></g></g></g><g fill="#ff3131" fill-opacity="1"><g transform="translate(484.414083, 200.293375)"><g><path d="M 23.246094 0 L 41.601562 -34.792969 L 31.972656 -34.792969 L 18.707031 -7.007812 L 15.28125 -34.792969 L 5.394531 -34.792969 L 11.496094 0 Z M 23.246094 0 "/></g></g></g><g fill="#ff3131" fill-opacity="1"><g transform="translate(520.255376, 200.293375)"><g><path d="M 15.027344 -27.734375 L 32.121094 -27.734375 L 33.382812 -34.792969 L 7.210938 -34.792969 L 1.058594 0 L 27.734375 0 L 28.996094 -7.058594 L 11.398438 -7.058594 L 12.605469 -13.917969 L 28.691406 -13.917969 L 29.953125 -20.976562 L 13.867188 -20.976562 Z M 15.027344 -27.734375 "/></g></g></g><g fill="#ff3131" fill-opacity="1"><g transform="translate(550.349857, 200.293375)"><g><path d="M 29.097656 -7.664062 L 11.496094 -7.664062 L 16.289062 -34.792969 L 7.210938 -34.792969 L 1.058594 0 L 27.734375 0 Z M 29.097656 -7.664062 "/></g></g></g><g fill="#ff3131" fill-opacity="1"><g transform="translate(579.855384, 200.293375)"><g/></g></g><g fill="#ff3131" fill-opacity="1"><g transform="translate(584.74462, 200.293375)"><g/></g></g><g fill="#ff3131" fill-opacity="1"><g transform="translate(589.633856, 200.293375)"><g/></g></g><g fill="#ff3131" fill-opacity="1"><g transform="translate(594.551032, 200.293375)"><g><path d="M 26.878906 -18.808594 C 31.265625 -20.171875 33.433594 -23.144531 33.433594 -27.027344 C 33.433594 -30.863281 30.863281 -33.988281 25.917969 -34.59375 C 24.15625 -34.792969 23.347656 -34.792969 21.480469 -34.792969 L 7.210938 -34.792969 L 1.058594 0 L 14.925781 0 C 17.144531 0 18.304688 0 20.121094 -0.203125 C 25.414062 -0.808594 32.121094 -4.183594 32.121094 -11.195312 C 32.121094 -14.875 30.457031 -17.597656 26.878906 -18.808594 Z M 15.027344 -27.734375 L 19.113281 -27.734375 C 19.917969 -27.734375 20.726562 -27.683594 21.382812 -27.582031 C 22.792969 -27.382812 23.648438 -26.574219 23.648438 -25.0625 C 23.648438 -22.589844 22.238281 -21.53125 20.222656 -21.230469 C 19.515625 -21.128906 18.757812 -21.078125 17.953125 -21.078125 L 13.867188 -21.078125 Z M 18.558594 -7.109375 C 17.851562 -7.058594 17.09375 -7.058594 16.289062 -7.058594 L 11.398438 -7.058594 L 12.707031 -14.523438 L 17.347656 -14.523438 C 18.152344 -14.523438 18.960938 -14.523438 19.617188 -14.472656 C 21.230469 -14.320312 22.539062 -13.3125 22.539062 -11.398438 C 22.539062 -8.773438 20.371094 -7.210938 18.558594 -7.109375 Z M 18.558594 -7.109375 "/></g></g></g><g fill="#ff3131" fill-opacity="1"><g transform="translate(626.863579, 200.293375)"><g><path d="M 29.097656 -7.664062 L 11.496094 -7.664062 L 16.289062 -34.792969 L 7.210938 -34.792969 L 1.058594 0 L 27.734375 0 Z M 29.097656 -7.664062 "/></g></g></g><g fill="#ff3131" fill-opacity="1"><g transform="translate(656.353138, 200.293375)"><g><path d="M 23.550781 -35.5 C 12.253906 -35.5 3.277344 -27.484375 3.277344 -14.371094 C 3.277344 -5.75 9.277344 0.707031 19.917969 0.707031 C 31.214844 0.707031 40.191406 -7.3125 40.191406 -20.421875 C 40.191406 -29.046875 34.191406 -35.5 23.550781 -35.5 Z M 20.222656 -5.949219 C 15.378906 -5.949219 12.859375 -9.53125 12.859375 -14.625 C 12.859375 -21.128906 16.238281 -28.84375 23.246094 -28.84375 C 28.089844 -28.84375 30.609375 -25.265625 30.609375 -20.171875 C 30.609375 -13.664062 27.230469 -5.949219 20.222656 -5.949219 Z M 20.222656 -5.949219 "/></g></g></g><g fill="#ff3131" fill-opacity="1"><g transform="translate(695.521515, 200.293375)"><g><path d="M 24.507812 -35.5 C 13.664062 -35.5 3.125 -27.835938 3.125 -13.3125 C 3.125 -4.183594 8.269531 0.707031 16.238281 0.707031 C 19.917969 0.707031 22.390625 0.152344 24.609375 -1.511719 L 26.828125 -5.394531 L 26.726562 0 L 33.785156 0 L 37.0625 -18.558594 L 21.734375 -18.558594 L 20.472656 -11.496094 L 27.230469 -11.496094 C 25.3125 -7.664062 22.691406 -5.949219 19.164062 -5.949219 C 15.632812 -5.949219 12.757812 -8.21875 12.757812 -14.371094 C 12.757812 -24.003906 17.902344 -28.84375 23.246094 -28.84375 C 26.929688 -28.84375 28.894531 -27.078125 28.996094 -23.347656 L 28.996094 -22.84375 L 38.074219 -22.84375 L 38.121094 -23.347656 C 38.628906 -30.207031 34.441406 -35.5 24.507812 -35.5 Z M 24.507812 -35.5 "/></g></g></g></svg>