<svg xmlns="http://www.w3.org/2000/svg" xmlns:xlink="http://www.w3.org/1999/xlink" width="1000" zoomAndPan="magnify" viewBox="0 0 750 208.499994" height="278" preserveAspectRatio="xMidYMid meet" version="1.0"><defs><g/><clipPath id="77c7a5ec20"><path d="M 0.898438 10 L 749.101562 10 L 749.101562 176 L 0.898438 176 Z M 0.898438 10 " clip-rule="nonzero"/></clipPath></defs><g clip-path="url(#77c7a5ec20)"><path stroke-linecap="butt" transform="matrix(1.790572, 0, 0, 1.790572, 16.885649, 46.702298)" fill="none" stroke-linejoin="miter" d="M 70.816402 34.021979 C 70.816402 37.595384 71.935545 39.382086 74.17165 39.382086 C 75.727106 39.382086 78.412614 38.020789 82.228172 35.298195 C 85.677228 32.745763 87.732262 31.142313 88.388914 30.485661 C 89.894194 29.222535 91.473648 28.589881 93.127274 28.589881 C 93.83192 28.589881 94.434032 28.827671 94.931429 29.301071 C 95.431008 29.776652 95.679706 30.485661 95.679706 31.434642 C 95.679706 32.381442 95.44846 33.245342 94.985968 34.021979 C 94.525658 34.800798 93.934454 35.601433 93.2189 36.428246 C 92.501165 37.25506 91.615449 38.177862 90.55739 39.198835 C 89.499331 40.219807 88.290743 41.295319 86.929446 42.42537 C 85.568149 43.555421 84.080321 44.678928 82.463781 45.798071 C 80.847241 46.915033 79.176162 47.925098 77.450543 48.823903 C 73.562993 50.815672 70.050672 51.812648 66.915762 51.812648 C 63.318361 51.812648 60.877189 50.1852 59.587883 46.928122 C 58.835243 45.056339 58.457832 42.809326 58.457832 40.182721 L 47.85106 47.364435 C 40.584264 52.469299 36.25822 55.178804 34.872925 55.495131 C 34.16828 55.665293 33.457089 55.750374 32.739354 55.750374 C 32.021619 55.750374 31.347515 55.682745 30.717043 55.54967 C 30.084389 55.416594 29.525908 55.191893 29.039419 54.875566 C 27.920275 54.218915 27.361795 53.245936 27.361795 51.958813 C 27.361795 51.448326 27.702119 50.209197 28.382767 48.239243 L 31.517677 39.637329 C 32.490656 36.866741 32.977145 35.202206 32.977145 34.641544 C 32.977145 34.447385 32.854977 34.351396 32.612823 34.351396 C 32.368488 34.351396 31.919085 34.606639 31.262434 35.117125 C 30.605783 35.627612 29.816056 36.282081 28.893254 37.084898 L 20.217167 44.66802 L 15.659876 48.459581 C 10.993507 52.176969 7.191038 54.035663 4.250288 54.035663 C 2.864993 54.035663 1.46661 53.416098 0.0573182 52.176969 C -1.474141 50.865848 -2.23987 49.284213 -2.23987 47.438608 C -2.23987 45.590822 -2.063164 43.572874 -1.70975 41.386945 C -1.358518 39.198835 -0.854576 37.091442 -0.197925 35.062586 C 0.458726 33.031548 1.27245 31.12486 2.245429 29.338158 C 3.216225 27.551455 4.322279 26.002544 5.561409 24.689241 C 8.236008 21.822664 11.388371 20.389375 15.022859 20.389375 C 18.655166 20.389375 20.47241 21.458342 20.47241 23.596277 C 20.47241 24.519079 19.975013 25.930552 18.978038 27.826333 C 16.8641 32.006213 15.806041 34.25977 15.806041 34.587005 C 15.806041 34.916421 15.908575 35.171664 16.115823 35.352734 C 16.323072 35.535986 16.547773 35.627612 16.789927 35.627612 C 17.300414 35.627612 18.029057 35.213114 18.978038 34.386301 C 25.22386 28.919297 29.155042 25.529144 30.771582 24.215841 C 32.38594 22.90472 33.947941 21.748491 35.455403 20.753697 C 38.90664 18.493595 41.653232 17.363544 43.695177 17.363544 C 45.37062 17.363544 46.731917 17.629695 47.776886 18.164178 C 49.600675 19.113159 50.510388 20.182126 50.510388 21.373261 C 50.510388 22.564396 50.346771 23.912604 50.019536 25.420066 C 49.69012 26.925346 49.332343 28.384814 48.944024 29.794105 L 47.85106 33.511493 C 47.510735 34.582642 47.340573 35.40291 47.340573 35.972299 C 47.340573 36.543869 47.582727 36.829654 48.069216 36.829654 C 49.236354 36.829654 51.555358 35.176028 55.032774 31.870956 L 58.56691 28.554976 C 62.626804 24.909579 65.70063 23.08579 67.79057 23.08579 C 68.787546 23.08579 69.675443 23.474109 70.45208 24.252928 C 71.813377 25.614225 72.494026 26.80536 72.494026 27.826333 C 72.494026 28.384814 72.299867 29.137454 71.909366 30.086435 C 71.180723 31.860048 70.816402 33.171169 70.816402 34.021979 Z M 138.765629 27.204586 C 139.930585 27.204586 140.515245 27.861238 140.515245 29.17454 C 140.515245 30.049348 140.21637 31.148857 139.620803 32.473068 C 139.025235 33.797278 138.170062 35.036407 137.050918 36.192637 C 135.933957 37.346685 134.651196 38.542183 133.204818 39.783494 C 131.75844 41.022624 130.069908 42.322837 128.137041 43.684134 C 126.206355 45.043249 124.072784 46.393638 121.74069 47.728757 C 119.406415 49.066056 116.928156 50.270281 114.303733 51.339248 C 108.494223 53.721518 102.867965 54.910471 97.424959 54.910471 C 93.269076 54.910471 89.634588 53.830596 86.523675 51.666483 C 83.268779 49.406381 81.639149 46.659789 81.639149 43.428891 C 81.639149 38.348024 84.372651 33.524582 89.841836 28.956384 C 94.5562 25.018658 100.110466 21.968829 106.502454 19.804716 C 110.390004 18.493595 113.684168 17.836943 116.380583 17.836943 C 118.568694 17.836943 120.41648 18.371427 121.92176 19.440394 C 123.527393 20.607532 124.328027 22.173896 124.328027 24.14385 C 124.328027 27.230765 121.886855 30.644916 117.000148 34.386301 C 116.223511 34.994958 115.518865 35.505444 114.886211 35.91776 L 113.57509 36.792568 C 111.144826 38.494189 107.449253 40.403059 102.492736 42.516996 C 104.022014 43.317631 105.450939 43.719039 106.775149 43.719039 C 108.09936 43.719039 109.290495 43.561966 110.348554 43.245639 C 111.404432 42.929312 112.602111 42.47991 113.939411 41.897431 C 115.274529 41.312772 116.703455 40.614671 118.221825 39.800947 C 119.740194 38.987223 121.278198 38.092781 122.833655 37.121984 C 126.308889 34.957871 129.323813 32.745763 131.874063 30.485661 C 133.211363 29.246532 134.912984 28.262646 136.978927 27.534003 C 137.659575 27.315846 138.255143 27.204586 138.765629 27.204586 Z M 98.55501 37.449219 L 100.559869 36.428246 C 101.21652 36.087922 101.798998 35.771595 102.309484 35.481447 C 107.218007 32.660682 110.014775 30.924156 110.693241 30.267505 C 111.37389 29.610853 111.714214 29.154906 111.714214 28.899663 C 111.714214 28.64442 111.642223 28.347727 111.496058 28.007403 C 111.349893 27.667078 111.155733 27.363841 110.91358 27.095508 C 110.32892 26.41486 109.709355 26.074535 109.052704 26.074535 C 108.398234 26.074535 107.673955 26.196703 106.884228 26.441038 C 106.094501 26.683192 105.298229 27.016972 104.497595 27.442377 C 103.694779 27.867782 102.922504 28.378269 102.182954 28.973836 C 101.441221 29.569404 100.791115 30.206421 100.232634 30.887069 C 98.943329 32.418528 98.299767 33.742739 98.299767 34.861882 C 98.299767 35.978844 98.384848 36.842744 98.55501 37.449219 Z M 193.882887 27.060603 C 194.975851 27.060603 195.523424 27.619084 195.523424 28.736046 C 195.523424 30.51184 194.356286 33.014096 192.024193 36.247176 C 190.394563 38.507278 187.041497 41.642188 181.962812 45.651906 C 175.911148 50.390267 171.048438 52.759447 167.379045 52.759447 C 164.608456 52.759447 162.518516 51.594491 161.109225 49.260216 C 160.258414 47.850924 159.566858 45.784982 159.032374 43.062388 L 155.786205 45.396663 C 146.867964 51.570494 140.207644 54.655228 135.809607 54.655228 C 132.140214 54.655228 129.199463 53.32011 126.987356 50.64551 C 125.043581 48.239243 124.070602 45.359576 124.070602 42.00651 C 124.070602 38.313119 125.33591 35.396366 127.862164 33.25625 C 133.015022 28.930205 139.417917 25.36989 147.075213 22.575304 C 150.186125 21.434345 152.153898 20.862775 152.980711 20.862775 C 153.805343 20.862775 154.566709 21.002395 155.258266 21.281636 C 155.952004 21.560876 156.637015 21.918653 157.317664 22.357147 C 158.921115 23.450112 159.723931 24.508171 159.723931 25.529144 C 159.723931 26.355957 159.213444 27.023517 158.192472 27.534003 C 157.876145 27.704165 157.341661 27.935411 156.589021 28.225559 C 155.836381 28.517889 154.911397 28.919297 153.818432 29.429783 C 150.877682 30.815078 148.008923 32.49052 145.214337 34.460474 C 143.222568 36.162095 142.225592 37.516848 142.225592 38.524731 C 142.225592 39.532614 142.930238 40.038738 144.339529 40.038738 C 145.506667 40.038738 147.838761 39.004675 151.340174 36.938733 C 151.340174 36.938733 152.372054 36.306079 154.437997 35.042952 C 156.650105 33.657658 158.423718 32.394531 159.761017 31.251391 C 159.761017 31.251391 160.319498 29.429783 161.43646 25.784387 C 163.502403 19.270232 165.799591 13.888309 168.328026 9.634256 C 172.800236 1.054158 177.296442 -3.2348 181.816647 -3.2348 C 183.468092 -3.2348 184.781394 -2.931562 185.752191 -2.322905 C 187.503988 -1.229941 188.378796 -0.0213536 188.378796 1.305038 C 188.378796 2.629249 188.134461 4.031996 187.647972 5.51546 C 187.163664 6.996743 186.524465 8.467119 185.734739 9.926586 C 184.945012 11.383872 184.039662 12.83025 183.018689 14.263539 L 176.785956 22.503312 C 175.740986 23.838431 174.816002 25.138644 174.015368 26.403952 C 172.603895 29.440691 171.899249 32.041118 171.899249 34.205231 C 171.899249 37.316144 173.0293 38.8716 175.289402 38.8716 C 176.578707 38.8716 178.899893 37.523392 182.25296 34.824795 L 186.555007 31.179399 C 188.572956 29.379607 190.564725 28.116481 192.534679 27.387838 C 193.09316 27.169681 193.542562 27.060603 193.882887 27.060603 Z M 237.91779 27.204586 C 239.084928 27.204586 239.667406 27.861238 239.667406 29.17454 C 239.667406 30.049348 239.368532 31.148857 238.775146 32.473068 C 238.179578 33.797278 237.322223 35.036407 236.20308 36.192637 C 235.086118 37.346685 233.803357 38.542183 232.359161 39.783494 C 230.912783 41.022624 229.222069 42.322837 227.291384 43.684134 C 225.358517 45.043249 223.227127 46.393638 220.892852 47.728757 C 218.560758 49.066056 216.080318 50.270281 213.455894 51.339248 C 207.648566 53.721518 202.022308 54.910471 196.57712 54.910471 C 192.421238 54.910471 188.788931 53.830596 185.678018 51.666483 C 182.42094 49.406381 180.791311 46.659789 180.791311 43.428891 C 180.791311 38.348024 183.526994 33.524582 188.993998 28.956384 C 193.710543 25.018658 199.262628 21.968829 205.654615 19.804716 C 209.544347 18.493595 212.836329 17.836943 215.534926 17.836943 C 217.720855 17.836943 219.568641 18.371427 221.076103 19.440394 C 222.679554 20.607532 223.480189 22.173896 223.480189 24.14385 C 223.480189 27.230765 221.039016 30.644916 216.154491 34.386301 C 215.375672 34.994958 214.671026 35.505444 214.038372 35.91776 L 212.727251 36.792568 C 210.296987 38.494189 206.603596 40.403059 201.644897 42.516996 C 203.176356 43.317631 204.6031 43.719039 205.927311 43.719039 C 207.253703 43.719039 208.442656 43.561966 209.500715 43.245639 C 210.558775 42.929312 211.754273 42.47991 213.091573 41.897431 C 214.428872 41.312772 215.855616 40.614671 217.373986 39.800947 C 218.894537 38.987223 220.43036 38.092781 221.985816 37.121984 C 225.46105 34.957871 228.475974 32.745763 231.028406 30.485661 C 232.363524 29.246532 234.065145 28.262646 236.131088 27.534003 C 236.811737 27.315846 237.407304 27.204586 237.91779 27.204586 Z M 197.707171 37.449219 L 199.71203 36.428246 C 200.368681 36.087922 200.951159 35.771595 201.461646 35.481447 C 206.37235 32.660682 209.166936 30.924156 209.847584 30.267505 C 210.528233 29.610853 210.868557 29.154906 210.868557 28.899663 C 210.868557 28.64442 210.794384 28.347727 210.648219 28.007403 C 210.504236 27.667078 210.307895 27.363841 210.065741 27.095508 C 209.483263 26.41486 208.863698 26.074535 208.207047 26.074535 C 207.550396 26.074535 206.828297 26.196703 206.038571 26.441038 C 205.246662 26.683192 204.452572 27.016972 203.649756 27.442377 C 202.84694 27.867782 202.076847 28.378269 201.335115 28.973836 C 200.593383 29.569404 199.943276 30.206421 199.384795 30.887069 C 198.09549 32.418528 197.451928 33.742739 197.451928 34.861882 C 197.451928 35.978844 197.537009 36.842744 197.707171 37.449219 Z M 273.970345 28.262646 C 275.525802 28.262646 276.302439 28.906208 276.302439 30.195513 C 276.302439 31.774967 275.355639 33.657658 273.459859 35.845768 C 270.322767 39.491165 266.629377 43.03839 262.377505 46.489627 C 255.451034 52.030804 249.264114 54.801393 243.821107 54.801393 C 239.907378 54.801393 236.700477 53.099771 234.196039 49.69871 C 231.595613 46.149303 230.2954 41.386945 230.2954 35.407274 C 230.2954 27.558 234.124048 18.881913 241.779162 9.379013 C 246.63969 3.32735 251.220978 -0.780538 255.523026 -2.94247 C 256.860325 -3.623119 257.885661 -3.963443 258.603396 -3.963443 C 259.321131 -3.963443 259.977783 -3.84782 260.571169 -3.616574 C 261.166736 -3.385328 261.720854 -3.064638 262.23134 -2.65014 C 263.422475 -1.655346 264.018042 -0.451122 264.018042 0.958169 C 264.018042 2.367461 263.627542 4.03854 262.850905 5.971407 C 262.072086 7.902093 260.942035 9.961491 259.460752 12.149602 C 256.325842 16.791973 252.084878 21.238004 246.737861 25.492057 C 245.352566 28.140478 244.658828 31.325564 244.658828 35.042952 C 244.658828 36.720576 245.193312 38.30003 246.264461 39.783494 C 247.357425 41.264777 248.559468 42.00651 249.87277 42.00651 C 251.670381 42.00651 255.11071 40.147816 260.189395 36.428246 L 266.677371 31.434642 C 269.327973 29.320705 271.758238 28.262646 273.970345 28.262646 Z M 311.187856 28.262646 C 312.743313 28.262646 313.522131 28.906208 313.522131 30.195513 C 313.522131 31.774967 312.57315 33.657658 310.67737 35.845768 C 307.54246 39.491165 303.849069 43.03839 299.595016 46.489627 C 292.668545 52.030804 286.483806 54.801393 281.0408 54.801393 C 277.127071 54.801393 273.917988 53.099771 271.415732 49.69871 C 268.815305 46.149303 267.515092 41.386945 267.515092 35.407274 C 267.515092 27.558 271.34374 18.881913 278.998854 9.379013 C 283.859383 3.32735 288.440671 -0.780538 292.742718 -2.94247 C 294.077836 -3.623119 295.105354 -3.963443 295.823089 -3.963443 C 296.538642 -3.963443 297.195294 -3.84782 297.790861 -3.616574 C 298.386429 -3.385328 298.938365 -3.064638 299.448851 -2.65014 C 300.639986 -1.655346 301.235553 -0.451122 301.235553 0.958169 C 301.235553 2.367461 300.847235 4.03854 300.068416 5.971407 C 299.291778 7.902093 298.161727 9.961491 296.678263 12.149602 C 293.543353 16.791973 289.302389 21.238004 283.955371 25.492057 C 282.570077 28.140478 281.878521 31.325564 281.878521 35.042952 C 281.878521 36.720576 282.413005 38.30003 283.481972 39.783494 C 284.574936 41.264777 285.77916 42.00651 287.090281 42.00651 C 288.890073 42.00651 292.328221 40.147816 297.409087 36.428246 L 303.897064 31.434642 C 306.545484 29.320705 308.975749 28.262646 311.187856 28.262646 Z M 336.995778 11.839819 C 336.291133 12.435387 335.525403 12.921876 334.700771 13.297105 C 333.873958 13.674516 332.948974 13.862131 331.930183 13.862131 C 330.90921 13.862131 329.923142 13.691968 328.976343 13.351644 C 328.029543 13.01132 327.20273 12.53792 326.498084 11.931445 C 324.966625 10.618142 324.200896 8.940518 324.200896 6.900754 C 324.200896 3.765845 326.825319 1.431569 332.074166 -0.0998899 C 333.849961 -0.634374 335.307247 -0.900525 336.450387 -0.900525 C 337.591346 -0.900525 338.448701 -0.773994 339.020271 -0.518751 C 339.591842 -0.263507 340.058697 0.0702722 340.423018 0.48477 C 341.151661 1.309402 341.515983 2.155849 341.515983 3.017567 C 341.515983 3.879286 341.413449 4.66465 341.2062 5.369295 C 341.001133 6.073941 340.702259 6.802584 340.31394 7.555224 C 339.925621 8.310046 339.452221 9.062686 338.891559 9.817508 C 338.333078 10.570148 337.700424 11.244252 336.995778 11.839819 Z M 327.809205 51.976265 C 325.963601 52.936154 324.163809 53.701884 322.414193 54.273454 C 320.664578 54.845024 318.945504 55.130809 317.256972 55.130809 C 315.566259 55.130809 313.816643 54.722856 312.005943 53.909132 C 310.195244 53.095408 308.585248 52.006807 307.175957 50.64551 C 304.041047 47.608771 302.472501 44.229525 302.472501 40.512137 C 302.472501 37.084898 303.493474 33.609663 305.535419 30.086435 C 307.407203 26.901349 309.789473 24.228931 312.680047 22.064818 C 315.572803 19.902886 318.258311 18.820829 320.736569 18.820829 C 324.285977 18.820829 326.181757 19.817805 326.423911 21.809574 C 326.498084 22.418231 326.532989 23.122877 326.532989 23.923512 C 326.532989 24.726328 326.345375 25.644767 325.967964 26.676648 C 325.592735 27.71071 325.106245 28.74259 324.510678 29.776652 C 323.915111 30.808533 323.258459 31.816416 322.542906 32.800302 C 321.825171 33.78637 321.137977 34.678631 320.481326 35.481447 C 319.2182 37.012906 318.210316 38.116778 317.455494 38.797427 C 317.455494 39.62424 318.077241 40.475051 319.31637 41.349858 C 320.481326 42.176672 321.471757 42.588988 322.287662 42.588988 C 323.101386 42.588988 324.061275 42.394828 325.167329 42.00651 C 326.273383 41.618191 327.414342 41.094615 328.594569 40.437964 C 329.772614 39.783494 330.974657 39.028673 332.202879 38.177862 C 333.428919 37.327051 334.639688 36.452243 335.830822 35.553438 L 342.50205 30.341678 C 345.150471 28.419719 347.301495 27.45983 348.95294 27.45983 C 349.609591 27.45983 350.113533 27.69762 350.466947 28.17102 C 350.818179 28.64442 350.994886 29.198538 350.994886 29.831192 C 350.994886 30.461664 350.678559 31.329927 350.048086 32.435981 C 349.415432 33.542035 348.547169 34.763712 347.441115 36.101011 C 346.335061 37.438311 345.041393 38.834513 343.557928 40.291799 C 342.076645 41.751267 340.471013 43.184555 338.745394 44.593847 C 337.019776 46.003138 335.22871 47.346983 333.370016 48.623199 C 331.509141 49.899415 329.656991 51.016376 327.809205 51.976265 Z M 383.109714 34.423387 C 383.109714 36.635495 383.753276 37.741549 385.042582 37.741549 C 388.201489 37.741549 392.309377 35.601433 397.364065 31.325564 L 398.347951 30.485661 C 400.317905 29.17454 401.914811 28.517889 403.143032 28.517889 C 404.369072 28.517889 405.147891 28.701141 405.475126 29.065462 C 405.804542 29.429783 405.96816 30.012262 405.96816 30.815078 C 405.96816 32.612688 405.056265 34.521558 403.232476 36.537325 C 400.512064 39.842397 396.781587 42.979488 392.041044 45.944236 C 386.550044 49.395473 381.628431 51.121091 377.278389 51.121091 C 374.239468 51.121091 372.33278 49.430378 371.553961 46.053314 C 371.335804 45.178506 371.17655 44.338604 371.080561 43.537969 C 370.836226 41.594194 370.580983 40.512137 370.314832 40.291799 C 370.046499 40.073643 369.51856 40.093277 368.728833 40.34852 C 367.939106 40.603763 367.003215 41.026987 365.921158 41.622554 C 364.839102 42.218122 363.643604 42.942401 362.330301 43.793212 C 355.379833 48.409405 351.383204 51.046918 350.338234 51.703569 C 347.833797 53.259026 346.145265 54.035663 345.270457 54.035663 C 344.395649 54.035663 343.538294 53.854593 342.700573 53.490272 C 341.86067 53.12595 341.125482 52.663458 340.49501 52.104977 C 339.181707 50.865848 338.525056 49.60054 338.525056 48.313416 C 338.525056 40.94845 340.130688 34.508468 343.33759 28.991289 C 345.475524 25.273901 348.102129 22.697472 351.213042 21.264183 C 352.792496 20.509361 354.494117 20.134132 356.315724 20.134132 C 359.644794 20.134132 361.309328 21.227096 361.309328 23.415207 C 361.309328 24.750325 360.519601 26.938435 358.940148 29.975175 L 357.847184 32.126199 C 357.068365 33.609663 356.693135 34.447385 356.717132 34.641544 C 356.863297 35.372368 357.190532 35.73669 357.701019 35.73669 C 358.259499 35.73669 359.086313 35.322192 360.179277 34.497561 L 366.887592 29.501775 L 370.240658 27.169681 C 374.106393 24.641247 376.948973 23.37812 378.772762 23.37812 C 379.743558 23.37812 380.631456 23.766439 381.434272 24.545258 C 382.915555 25.954549 383.657287 27.180589 383.657287 28.225559 C 383.657287 28.565883 383.626745 28.980381 383.565662 29.464689 C 383.504578 29.951178 383.439131 30.474753 383.364958 31.033234 L 383.218793 32.745763 C 383.146801 33.330423 383.109714 33.888904 383.109714 34.423387 Z M 383.109714 34.423387 " stroke="#282929" stroke-width="2.893335" stroke-opacity="1" stroke-miterlimit="4"/></g><g fill="#c1ff72" fill-opacity="1"><g transform="translate(19.795328, 143.393174)"><g><path d="M 123.890625 -35.765625 C 123.890625 -29.367188 125.894531 -26.171875 129.90625 -26.171875 C 132.6875 -26.171875 137.492188 -28.609375 144.328125 -33.484375 C 150.503906 -38.054688 154.179688 -40.929688 155.359375 -42.109375 C 158.054688 -44.367188 160.882812 -45.5 163.84375 -45.5 C 165.101562 -45.5 166.179688 -45.070312 167.078125 -44.21875 C 167.972656 -43.375 168.421875 -42.101562 168.421875 -40.40625 C 168.421875 -38.707031 168.003906 -37.160156 167.171875 -35.765625 C 166.347656 -34.378906 165.289062 -32.945312 164 -31.46875 C 162.71875 -29.988281 161.128906 -28.332031 159.234375 -26.5 C 157.347656 -24.675781 155.1875 -22.75 152.75 -20.71875 C 150.3125 -18.695312 147.644531 -16.6875 144.75 -14.6875 C 141.851562 -12.6875 138.863281 -10.878906 135.78125 -9.265625 C 128.8125 -5.703125 122.519531 -3.921875 116.90625 -3.921875 C 110.46875 -3.921875 106.097656 -6.832031 103.796875 -12.65625 C 102.441406 -16.007812 101.765625 -20.035156 101.765625 -24.734375 L 82.765625 -11.875 C 69.753906 -2.738281 62.007812 2.109375 59.53125 2.671875 C 58.269531 2.984375 56.992188 3.140625 55.703125 3.140625 C 54.421875 3.140625 53.210938 3.019531 52.078125 2.78125 C 50.953125 2.539062 49.957031 2.132812 49.09375 1.5625 C 47.082031 0.382812 46.078125 -1.351562 46.078125 -3.65625 C 46.078125 -4.570312 46.6875 -6.789062 47.90625 -10.3125 L 53.53125 -25.71875 C 55.269531 -30.675781 56.140625 -33.65625 56.140625 -34.65625 C 56.140625 -35.007812 55.921875 -35.1875 55.484375 -35.1875 C 55.046875 -35.1875 54.238281 -34.726562 53.0625 -33.8125 C 51.894531 -32.894531 50.484375 -31.71875 48.828125 -30.28125 L 33.296875 -16.71875 L 25.125 -9.921875 C 16.769531 -3.265625 9.960938 0.0625 4.703125 0.0625 C 2.222656 0.0625 -0.28125 -1.046875 -2.8125 -3.265625 C -5.550781 -5.609375 -6.921875 -8.4375 -6.921875 -11.75 C -6.921875 -15.0625 -6.601562 -18.671875 -5.96875 -22.578125 C -5.34375 -26.492188 -4.441406 -30.269531 -3.265625 -33.90625 C -2.085938 -37.539062 -0.628906 -40.957031 1.109375 -44.15625 C 2.847656 -47.351562 4.828125 -50.128906 7.046875 -52.484375 C 11.835938 -57.617188 17.484375 -60.1875 23.984375 -60.1875 C 30.492188 -60.1875 33.75 -58.269531 33.75 -54.4375 C 33.75 -52.78125 32.859375 -50.257812 31.078125 -46.875 C 27.285156 -39.382812 25.390625 -35.34375 25.390625 -34.75 C 25.390625 -34.164062 25.570312 -33.710938 25.9375 -33.390625 C 26.3125 -33.066406 26.71875 -32.90625 27.15625 -32.90625 C 28.070312 -32.90625 29.378906 -33.644531 31.078125 -35.125 C 42.253906 -44.914062 49.289062 -50.984375 52.1875 -53.328125 C 55.082031 -55.679688 57.878906 -57.75 60.578125 -59.53125 C 66.753906 -63.582031 71.671875 -65.609375 75.328125 -65.609375 C 78.328125 -65.609375 80.765625 -65.128906 82.640625 -64.171875 C 85.898438 -62.472656 87.53125 -60.554688 87.53125 -58.421875 C 87.53125 -56.285156 87.238281 -53.867188 86.65625 -51.171875 C 86.070312 -48.472656 85.429688 -45.863281 84.734375 -43.34375 L 82.765625 -36.6875 C 82.160156 -34.769531 81.859375 -33.300781 81.859375 -32.28125 C 81.859375 -31.257812 82.289062 -30.75 83.15625 -30.75 C 85.25 -30.75 89.40625 -33.707031 95.625 -39.625 L 101.96875 -45.5625 C 109.226562 -52.09375 114.734375 -55.359375 118.484375 -55.359375 C 120.265625 -55.359375 121.851562 -54.660156 123.25 -53.265625 C 125.6875 -50.828125 126.90625 -48.695312 126.90625 -46.875 C 126.90625 -45.875 126.554688 -44.523438 125.859375 -42.828125 C 124.546875 -39.648438 123.890625 -37.296875 123.890625 -35.765625 Z M 123.890625 -35.765625 "/></g></g></g><g fill="#c1ff72" fill-opacity="1"><g transform="translate(175.077787, 143.393174)"><g><path d="M 90.28125 -47.984375 C 92.363281 -47.984375 93.40625 -46.804688 93.40625 -44.453125 C 93.40625 -42.890625 92.875 -40.921875 91.8125 -38.546875 C 90.75 -36.171875 89.210938 -33.945312 87.203125 -31.875 C 85.203125 -29.8125 82.90625 -27.671875 80.3125 -25.453125 C 77.726562 -23.234375 74.707031 -20.90625 71.25 -18.46875 C 67.789062 -16.03125 63.972656 -13.613281 59.796875 -11.21875 C 55.617188 -8.832031 51.179688 -6.679688 46.484375 -4.765625 C 36.078125 -0.503906 26 1.625 16.25 1.625 C 8.8125 1.625 2.304688 -0.304688 -3.265625 -4.171875 C -9.097656 -8.222656 -12.015625 -13.144531 -12.015625 -18.9375 C -12.015625 -28.03125 -7.117188 -36.664062 2.671875 -44.84375 C 11.117188 -51.894531 21.066406 -57.359375 32.515625 -61.234375 C 39.472656 -63.578125 45.367188 -64.75 50.203125 -64.75 C 54.117188 -64.75 57.425781 -63.789062 60.125 -61.875 C 62.988281 -59.789062 64.421875 -56.988281 64.421875 -53.46875 C 64.421875 -47.9375 60.050781 -41.820312 51.3125 -35.125 C 49.914062 -34.03125 48.648438 -33.113281 47.515625 -32.375 L 45.171875 -30.8125 C 40.816406 -27.757812 34.203125 -24.34375 25.328125 -20.5625 C 28.066406 -19.125 30.625 -18.40625 33 -18.40625 C 35.375 -18.40625 37.503906 -18.6875 39.390625 -19.25 C 41.285156 -19.820312 43.429688 -20.628906 45.828125 -21.671875 C 48.222656 -22.710938 50.78125 -23.960938 53.5 -25.421875 C 56.21875 -26.878906 58.96875 -28.476562 61.75 -30.21875 C 67.976562 -34.09375 73.375 -38.054688 77.9375 -42.109375 C 80.332031 -44.328125 83.378906 -46.085938 87.078125 -47.390625 C 88.296875 -47.785156 89.363281 -47.984375 90.28125 -47.984375 Z M 18.28125 -29.640625 L 21.875 -31.46875 C 23.039062 -32.070312 24.082031 -32.632812 25 -33.15625 C 33.789062 -38.207031 38.796875 -41.320312 40.015625 -42.5 C 41.234375 -43.675781 41.84375 -44.488281 41.84375 -44.9375 C 41.84375 -45.394531 41.710938 -45.925781 41.453125 -46.53125 C 41.191406 -47.144531 40.84375 -47.691406 40.40625 -48.171875 C 39.363281 -49.390625 38.253906 -50 37.078125 -50 C 35.898438 -50 34.601562 -49.78125 33.1875 -49.34375 C 31.78125 -48.914062 30.359375 -48.316406 28.921875 -47.546875 C 27.484375 -46.785156 26.097656 -45.875 24.765625 -44.8125 C 23.441406 -43.75 22.28125 -42.609375 21.28125 -41.390625 C 18.976562 -38.640625 17.828125 -36.265625 17.828125 -34.265625 C 17.828125 -32.265625 17.976562 -30.722656 18.28125 -29.640625 Z M 18.28125 -29.640625 "/></g></g></g><g fill="#c1ff72" fill-opacity="1"><g transform="translate(252.751652, 143.393174)"><g><path d="M 111.296875 -48.234375 C 113.253906 -48.234375 114.234375 -47.234375 114.234375 -45.234375 C 114.234375 -42.054688 112.144531 -37.578125 107.96875 -31.796875 C 105.050781 -27.742188 99.046875 -22.128906 89.953125 -14.953125 C 79.117188 -6.460938 70.414062 -2.21875 63.84375 -2.21875 C 58.882812 -2.21875 55.140625 -4.304688 52.609375 -8.484375 C 51.085938 -11.003906 49.847656 -14.703125 48.890625 -19.578125 L 43.078125 -15.40625 C 27.109375 -4.351562 15.1875 1.171875 7.3125 1.171875 C 0.738281 1.171875 -4.523438 -1.21875 -8.484375 -6 C -11.960938 -10.3125 -13.703125 -15.46875 -13.703125 -21.46875 C -13.703125 -28.082031 -11.441406 -33.304688 -6.921875 -37.140625 C 2.304688 -44.890625 13.773438 -51.265625 27.484375 -56.265625 C 33.054688 -58.316406 36.582031 -59.34375 38.0625 -59.34375 C 39.539062 -59.34375 40.898438 -59.085938 42.140625 -58.578125 C 43.378906 -58.078125 44.609375 -57.4375 45.828125 -56.65625 C 48.703125 -54.695312 50.140625 -52.804688 50.140625 -50.984375 C 50.140625 -49.503906 49.222656 -48.304688 47.390625 -47.390625 C 46.828125 -47.085938 45.867188 -46.675781 44.515625 -46.15625 C 43.171875 -45.632812 41.519531 -44.914062 39.5625 -44 C 34.289062 -41.519531 29.15625 -38.515625 24.15625 -34.984375 C 20.582031 -31.941406 18.796875 -29.515625 18.796875 -27.703125 C 18.796875 -25.898438 20.054688 -25 22.578125 -25 C 24.671875 -25 28.851562 -26.847656 35.125 -30.546875 C 35.125 -30.546875 36.972656 -31.675781 40.671875 -33.9375 C 44.628906 -36.425781 47.804688 -38.691406 50.203125 -40.734375 C 50.203125 -40.734375 51.203125 -44 53.203125 -50.53125 C 56.898438 -62.1875 61.007812 -71.820312 65.53125 -79.4375 C 73.539062 -94.800781 81.59375 -102.484375 89.6875 -102.484375 C 92.644531 -102.484375 94.992188 -101.941406 96.734375 -100.859375 C 99.867188 -98.898438 101.4375 -96.734375 101.4375 -94.359375 C 101.4375 -91.984375 101 -89.46875 100.125 -86.8125 C 99.257812 -84.164062 98.117188 -81.535156 96.703125 -78.921875 C 95.296875 -76.304688 93.675781 -73.71875 91.84375 -71.15625 L 80.6875 -56.40625 C 78.8125 -54.007812 77.15625 -51.679688 75.71875 -49.421875 C 73.195312 -43.972656 71.9375 -39.316406 71.9375 -35.453125 C 71.9375 -29.878906 73.957031 -27.09375 78 -27.09375 C 80.3125 -27.09375 84.46875 -29.503906 90.46875 -34.328125 L 98.171875 -40.859375 C 101.785156 -44.078125 105.351562 -46.34375 108.875 -47.65625 C 109.882812 -48.039062 110.691406 -48.234375 111.296875 -48.234375 Z M 111.296875 -48.234375 "/></g></g></g><g fill="#c1ff72" fill-opacity="1"><g transform="translate(352.61805, 143.393174)"><g><path d="M 90.28125 -47.984375 C 92.363281 -47.984375 93.40625 -46.804688 93.40625 -44.453125 C 93.40625 -42.890625 92.875 -40.921875 91.8125 -38.546875 C 90.75 -36.171875 89.210938 -33.945312 87.203125 -31.875 C 85.203125 -29.8125 82.90625 -27.671875 80.3125 -25.453125 C 77.726562 -23.234375 74.707031 -20.90625 71.25 -18.46875 C 67.789062 -16.03125 63.972656 -13.613281 59.796875 -11.21875 C 55.617188 -8.832031 51.179688 -6.679688 46.484375 -4.765625 C 36.078125 -0.503906 26 1.625 16.25 1.625 C 8.8125 1.625 2.304688 -0.304688 -3.265625 -4.171875 C -9.097656 -8.222656 -12.015625 -13.144531 -12.015625 -18.9375 C -12.015625 -28.03125 -7.117188 -36.664062 2.671875 -44.84375 C 11.117188 -51.894531 21.066406 -57.359375 32.515625 -61.234375 C 39.472656 -63.578125 45.367188 -64.75 50.203125 -64.75 C 54.117188 -64.75 57.425781 -63.789062 60.125 -61.875 C 62.988281 -59.789062 64.421875 -56.988281 64.421875 -53.46875 C 64.421875 -47.9375 60.050781 -41.820312 51.3125 -35.125 C 49.914062 -34.03125 48.648438 -33.113281 47.515625 -32.375 L 45.171875 -30.8125 C 40.816406 -27.757812 34.203125 -24.34375 25.328125 -20.5625 C 28.066406 -19.125 30.625 -18.40625 33 -18.40625 C 35.375 -18.40625 37.503906 -18.6875 39.390625 -19.25 C 41.285156 -19.820312 43.429688 -20.628906 45.828125 -21.671875 C 48.222656 -22.710938 50.78125 -23.960938 53.5 -25.421875 C 56.21875 -26.878906 58.96875 -28.476562 61.75 -30.21875 C 67.976562 -34.09375 73.375 -38.054688 77.9375 -42.109375 C 80.332031 -44.328125 83.378906 -46.085938 87.078125 -47.390625 C 88.296875 -47.785156 89.363281 -47.984375 90.28125 -47.984375 Z M 18.28125 -29.640625 L 21.875 -31.46875 C 23.039062 -32.070312 24.082031 -32.632812 25 -33.15625 C 33.789062 -38.207031 38.796875 -41.320312 40.015625 -42.5 C 41.234375 -43.675781 41.84375 -44.488281 41.84375 -44.9375 C 41.84375 -45.394531 41.710938 -45.925781 41.453125 -46.53125 C 41.191406 -47.144531 40.84375 -47.691406 40.40625 -48.171875 C 39.363281 -49.390625 38.253906 -50 37.078125 -50 C 35.898438 -50 34.601562 -49.78125 33.1875 -49.34375 C 31.78125 -48.914062 30.359375 -48.316406 28.921875 -47.546875 C 27.484375 -46.785156 26.097656 -45.875 24.765625 -44.8125 C 23.441406 -43.75 22.28125 -42.609375 21.28125 -41.390625 C 18.976562 -38.640625 17.828125 -36.265625 17.828125 -34.265625 C 17.828125 -32.265625 17.976562 -30.722656 18.28125 -29.640625 Z M 18.28125 -29.640625 "/></g></g></g><g fill="#c1ff72" fill-opacity="1"><g transform="translate(430.291915, 143.393174)"><g><path d="M 77.15625 -46.078125 C 79.9375 -46.078125 81.328125 -44.925781 81.328125 -42.625 C 81.328125 -39.800781 79.632812 -36.429688 76.25 -32.515625 C 70.632812 -25.984375 64.019531 -19.628906 56.40625 -13.453125 C 44 -3.523438 32.921875 1.4375 23.171875 1.4375 C 16.160156 1.4375 10.414062 -1.609375 5.9375 -7.703125 C 1.28125 -14.054688 -1.046875 -22.585938 -1.046875 -33.296875 C -1.046875 -47.347656 5.804688 -62.882812 19.515625 -79.90625 C 28.222656 -90.738281 36.425781 -98.09375 44.125 -101.96875 C 46.519531 -103.1875 48.359375 -103.796875 49.640625 -103.796875 C 50.921875 -103.796875 52.09375 -103.585938 53.15625 -103.171875 C 54.226562 -102.753906 55.222656 -102.175781 56.140625 -101.4375 C 58.273438 -99.65625 59.34375 -97.5 59.34375 -94.96875 C 59.34375 -92.445312 58.644531 -89.457031 57.25 -86 C 55.851562 -82.539062 53.828125 -78.851562 51.171875 -74.9375 C 45.554688 -66.625 37.960938 -58.660156 28.390625 -51.046875 C 25.910156 -46.304688 24.671875 -40.601562 24.671875 -33.9375 C 24.671875 -30.9375 25.628906 -28.109375 27.546875 -25.453125 C 29.503906 -22.796875 31.660156 -21.46875 34.015625 -21.46875 C 37.234375 -21.46875 43.390625 -24.800781 52.484375 -31.46875 L 64.109375 -40.40625 C 68.847656 -44.1875 73.195312 -46.078125 77.15625 -46.078125 Z M 77.15625 -46.078125 "/></g></g></g><g fill="#c1ff72" fill-opacity="1"><g transform="translate(496.934786, 143.393174)"><g><path d="M 77.15625 -46.078125 C 79.9375 -46.078125 81.328125 -44.925781 81.328125 -42.625 C 81.328125 -39.800781 79.632812 -36.429688 76.25 -32.515625 C 70.632812 -25.984375 64.019531 -19.628906 56.40625 -13.453125 C 44 -3.523438 32.921875 1.4375 23.171875 1.4375 C 16.160156 1.4375 10.414062 -1.609375 5.9375 -7.703125 C 1.28125 -14.054688 -1.046875 -22.585938 -1.046875 -33.296875 C -1.046875 -47.347656 5.804688 -62.882812 19.515625 -79.90625 C 28.222656 -90.738281 36.425781 -98.09375 44.125 -101.96875 C 46.519531 -103.1875 48.359375 -103.796875 49.640625 -103.796875 C 50.921875 -103.796875 52.09375 -103.585938 53.15625 -103.171875 C 54.226562 -102.753906 55.222656 -102.175781 56.140625 -101.4375 C 58.273438 -99.65625 59.34375 -97.5 59.34375 -94.96875 C 59.34375 -92.445312 58.644531 -89.457031 57.25 -86 C 55.851562 -82.539062 53.828125 -78.851562 51.171875 -74.9375 C 45.554688 -66.625 37.960938 -58.660156 28.390625 -51.046875 C 25.910156 -46.304688 24.671875 -40.601562 24.671875 -33.9375 C 24.671875 -30.9375 25.628906 -28.109375 27.546875 -25.453125 C 29.503906 -22.796875 31.660156 -21.46875 34.015625 -21.46875 C 37.234375 -21.46875 43.390625 -24.800781 52.484375 -31.46875 L 64.109375 -40.40625 C 68.847656 -44.1875 73.195312 -46.078125 77.15625 -46.078125 Z M 77.15625 -46.078125 "/></g></g></g><g fill="#c1ff72" fill-opacity="1"><g transform="translate(563.577685, 143.393174)"><g><path d="M 56.71875 -75.484375 C 55.457031 -74.421875 54.085938 -73.550781 52.609375 -72.875 C 51.128906 -72.207031 49.472656 -71.875 47.640625 -71.875 C 45.816406 -71.875 44.054688 -72.175781 42.359375 -72.78125 C 40.660156 -73.394531 39.179688 -74.242188 37.921875 -75.328125 C 35.179688 -77.679688 33.8125 -80.6875 33.8125 -84.34375 C 33.8125 -89.957031 38.507812 -94.132812 47.90625 -96.875 C 51.082031 -97.832031 53.691406 -98.3125 55.734375 -98.3125 C 57.785156 -98.3125 59.320312 -98.082031 60.34375 -97.625 C 61.363281 -97.164062 62.203125 -96.566406 62.859375 -95.828125 C 64.160156 -94.347656 64.8125 -92.832031 64.8125 -91.28125 C 64.8125 -89.738281 64.625 -88.335938 64.25 -87.078125 C 63.882812 -85.816406 63.351562 -84.507812 62.65625 -83.15625 C 61.96875 -81.8125 61.125 -80.460938 60.125 -79.109375 C 59.125 -77.765625 57.988281 -76.554688 56.71875 -75.484375 Z M 40.265625 -3.625 C 36.960938 -1.90625 33.742188 -0.535156 30.609375 0.484375 C 27.484375 1.515625 24.40625 2.03125 21.375 2.03125 C 18.351562 2.03125 15.21875 1.300781 11.96875 -0.15625 C 8.726562 -1.613281 5.847656 -3.5625 3.328125 -6 C -2.285156 -11.445312 -5.09375 -17.5 -5.09375 -24.15625 C -5.09375 -30.289062 -3.265625 -36.515625 0.390625 -42.828125 C 3.742188 -48.523438 8.007812 -53.3125 13.1875 -57.1875 C 18.363281 -61.0625 23.171875 -63 27.609375 -63 C 33.960938 -63 37.359375 -61.210938 37.796875 -57.640625 C 37.921875 -56.546875 37.984375 -55.28125 37.984375 -53.84375 C 37.984375 -52.414062 37.644531 -50.773438 36.96875 -48.921875 C 36.300781 -47.078125 35.429688 -45.226562 34.359375 -43.375 C 33.296875 -41.53125 32.125 -39.722656 30.84375 -37.953125 C 29.5625 -36.191406 28.332031 -34.59375 27.15625 -33.15625 C 24.894531 -30.414062 23.085938 -28.4375 21.734375 -27.21875 C 21.734375 -25.738281 22.84375 -24.21875 25.0625 -22.65625 C 27.15625 -21.175781 28.929688 -20.4375 30.390625 -20.4375 C 31.847656 -20.4375 33.566406 -20.78125 35.546875 -21.46875 C 37.523438 -22.164062 39.566406 -23.101562 41.671875 -24.28125 C 43.785156 -25.457031 45.941406 -26.804688 48.140625 -28.328125 C 50.335938 -29.847656 52.503906 -31.414062 54.640625 -33.03125 L 66.578125 -42.359375 C 71.328125 -45.796875 75.179688 -47.515625 78.140625 -47.515625 C 79.316406 -47.515625 80.21875 -47.085938 80.84375 -46.234375 C 81.476562 -45.390625 81.796875 -44.398438 81.796875 -43.265625 C 81.796875 -42.140625 81.226562 -40.585938 80.09375 -38.609375 C 78.957031 -36.628906 77.398438 -34.441406 75.421875 -32.046875 C 73.441406 -29.648438 71.125 -27.144531 68.46875 -24.53125 C 65.820312 -21.925781 62.953125 -19.363281 59.859375 -16.84375 C 56.765625 -14.320312 53.550781 -11.914062 50.21875 -9.625 C 46.894531 -7.34375 43.578125 -5.34375 40.265625 -3.625 Z M 40.265625 -3.625 "/></g></g></g><g fill="#c1ff72" fill-opacity="1"><g transform="translate(630.220528, 143.393174)"><g><path d="M 72.65625 -35.046875 C 72.65625 -31.085938 73.804688 -29.109375 76.109375 -29.109375 C 81.765625 -29.109375 89.117188 -32.941406 98.171875 -40.609375 L 99.9375 -42.109375 C 103.46875 -44.453125 106.328125 -45.625 108.515625 -45.625 C 110.710938 -45.625 112.101562 -45.296875 112.6875 -44.640625 C 113.28125 -43.992188 113.578125 -42.953125 113.578125 -41.515625 C 113.578125 -38.296875 111.945312 -34.878906 108.6875 -31.265625 C 103.8125 -25.347656 97.128906 -19.734375 88.640625 -14.421875 C 78.804688 -8.242188 69.992188 -5.15625 62.203125 -5.15625 C 56.765625 -5.15625 53.347656 -8.179688 51.953125 -14.234375 C 51.566406 -15.796875 51.285156 -17.296875 51.109375 -18.734375 C 50.671875 -22.210938 50.210938 -24.144531 49.734375 -24.53125 C 49.253906 -24.925781 48.304688 -24.894531 46.890625 -24.4375 C 45.484375 -23.988281 43.8125 -23.226562 41.875 -22.15625 C 39.9375 -21.09375 37.796875 -19.800781 35.453125 -18.28125 C 23.003906 -10.007812 15.84375 -5.285156 13.96875 -4.109375 C 9.488281 -1.328125 6.460938 0.0625 4.890625 0.0625 C 3.328125 0.0625 1.796875 -0.257812 0.296875 -0.90625 C -1.203125 -1.5625 -2.519531 -2.390625 -3.65625 -3.390625 C -6.007812 -5.609375 -7.1875 -7.875 -7.1875 -10.1875 C -7.1875 -23.375 -4.3125 -34.90625 1.4375 -44.78125 C 5.269531 -51.4375 9.96875 -56.050781 15.53125 -58.625 C 18.363281 -59.96875 21.410156 -60.640625 24.671875 -60.640625 C 30.640625 -60.640625 33.625 -58.679688 33.625 -54.765625 C 33.625 -52.367188 32.207031 -48.453125 29.375 -43.015625 L 27.421875 -39.171875 C 26.023438 -36.515625 25.347656 -35.007812 25.390625 -34.65625 C 25.648438 -33.351562 26.238281 -32.703125 27.15625 -32.703125 C 28.15625 -32.703125 29.632812 -33.441406 31.59375 -34.921875 L 43.609375 -43.859375 L 49.609375 -48.046875 C 56.523438 -52.566406 61.617188 -54.828125 64.890625 -54.828125 C 66.628906 -54.828125 68.21875 -54.132812 69.65625 -52.75 C 72.300781 -50.21875 73.625 -48.019531 73.625 -46.15625 C 73.625 -45.539062 73.570312 -44.796875 73.46875 -43.921875 C 73.363281 -43.054688 73.242188 -42.125 73.109375 -41.125 L 72.84375 -38.0625 C 72.71875 -37.007812 72.65625 -36.003906 72.65625 -35.046875 Z M 72.65625 -35.046875 "/></g></g></g></svg>